<?xml version="1.0" encoding="UTF-8"?>
<svg width="43px" height="28px" viewBox="0 0 43 28" version="1.1" xmlns="http://www.w3.org/2000/svg" xmlns:xlink="http://www.w3.org/1999/xlink">
    <!-- Generator: sketchtool 51.3 (57544) - http://www.bohemiancoding.com/sketch -->
    <title>89DC7E83-0349-42C7-8B1A-B142F8986E17</title>
    <desc>Created with sketchtool.</desc>
    <defs></defs>
    <g id="design" stroke="none" stroke-width="1" fill="none" fill-rule="evenodd">
        <g id="homepage" transform="translate(-1365.000000, -2352.000000)">
            <g id="htp-resident" transform="translate(1365.000000, 2352.000000)">
                <g id="htp">
                    <polyline id="Fill-117" fill="#000000" points="0 18.4842758 0 0 4.49863219 0 4.49863219 6.55850542 9.29268947 6.55850542 9.29268947 0 13.75686 0 13.75686 18.4842758 9.29268947 18.4842758 9.29268947 11.0194721 4.49863219 11.0194721 4.49863219 18.4842758 0 18.4842758"></polyline>
                    <polyline id="Fill-118" fill="#7C8386" points="24.8014758 4.31906431 24.8014758 18.4842758 20.3025657 18.4842758 20.3025657 4.31906431 16.4292453 4.31906431 16.4292453 0 28.6747961 0 28.6747961 4.31906431 24.8014758 4.31906431"></polyline>
                    <path d="M29.8160377,18.8218271 L29.8160377,6.9253472 C29.8160377,4.84970521 30.4210617,3.1764517 31.6322212,1.90587102 C32.8431028,0.63529034 34.4411219,0 36.4262785,0 C38.2510773,0 39.7796173,0.62220916 41.013566,1.86634311 C42.2447355,3.11076143 42.8617098,4.64125946 42.8617098,6.45812158 C42.8617098,8.39555805 42.1974897,9.95420906 40.8746078,11.1337902 C39.5489467,12.3136558 37.7847336,12.9034464 35.5816906,12.9034464 L35.1136795,12.9034464 L35.1136795,8.49565752 L35.8090262,8.49565752 C36.5760754,8.49565752 37.1791539,8.30768665 37.6171501,7.9308918 C38.0557021,7.55466569 38.2760898,7.04222469 38.2760898,6.39328443 C38.2760898,5.82254687 38.0915533,5.34906503 37.7247037,4.97227018 C37.3575762,4.59604408 36.8915105,4.40778884 36.3262286,4.40778884 C35.693413,4.40778884 35.2001115,4.62618766 34.846046,5.06326969 C34.4917026,5.50035172 34.3146699,6.11232344 34.3146699,6.89946921 L34.3146699,18.8218271 L29.8160377,18.8218271" id="Fill-119" fill="#7C8386"></path>
                </g>
                <text id="Resident" font-family="Helvetica-Light, Helvetica" font-size="6.6825" font-weight="300" letter-spacing="1.49445015" fill="#000000">
                    <tspan x="0" y="27">RESIDEN</tspan>
                    <tspan x="38.6746661" y="27">T</tspan>
                </text>
            </g>
        </g>
    </g>
</svg>