<svg xmlns="http://www.w3.org/2000/svg" xmlns:xlink="http://www.w3.org/1999/xlink" width="16" height="16" version="1.1" style=""><rect id="backgroundrect" width="100%" height="100%" x="0" y="0" fill="none" stroke="none"/>
    <!-- Generator: sketchtool 51.3 (57544) - http://www.bohemiancoding.com/sketch -->
    <title>CF27F39E-9854-4D68-BE9A-BE0BAED8B93A</title>
    <desc>Created with sketchtool.</desc>
    <defs/>
    
<g class="currentLayer" style=""><title>Layer 1</title><g id="Symbols" stroke="none" stroke-width="1" fill="none" fill-rule="evenodd" class="">
        <g id="chevron-left-white" fill="#FFFFFF" fill-rule="nonzero">
            <path d="M6.04377548,7.60481356 L9.77288731,4.45830616 C10.09042908,4.12030496 10.07284241,3.57734342 9.73360639,3.24556761 C9.39437037,2.91379181 8.86194678,2.91883849 8.54440502,3.25683969 L4.2271152999999995,7.0294216800000004 C3.9044585000000005,7.37286747 3.9285593999999993,7.92642525 4.28050311,8.25565363 L8.54440502,12.3456497 C8.89076945,12.6696589 9.422655899999999,12.6522749 9.73240665,12.3068215 C10.0421574,11.9613681 10.01247614,11.4186615 9.6661117,11.0946523 L6.04377548,7.60481356 z" id="Combined-Shape"/>
        </g>
    </g><g stroke="none" stroke-width="1" fill="#8a8a8a" fill-rule="evenodd" class="selected" id="svg_1" fill-opacity="1">
        <g id="svg_3" fill="#8a8a8a" fill-rule="nonzero" fill-opacity="1">
            <path d="M5.962142828611355,7.60481356 L9.691254658611355,4.45830616 C10.008796428611355,4.12030496 9.991209758611355,3.57734342 9.651973738611355,3.24556761 C9.312737718611356,2.91379181 8.780314128611355,2.91883849 8.462772368611354,3.25683969 L4.145482648611354,7.0294216800000004 C3.8228258486113553,7.37286747 3.846926748611354,7.92642525 4.1988704586113546,8.25565363 L8.462772368611354,12.3456497 C8.809136798611355,12.6696589 9.341023248611354,12.6522749 9.650773998611355,12.3068215 C9.960524748611356,11.9613681 9.930843488611355,11.4186615 9.584479048611355,11.0946523 L5.962142828611355,7.60481356 z" id="Combined-Shape" fill="#8a8a8a" fill-opacity="1"/>
        </g>
    </g></g></svg>