<?xml version="1.0" encoding="UTF-8"?>
<svg width="52px" height="60px" viewBox="0 0 52 60" version="1.1" xmlns="http://www.w3.org/2000/svg" xmlns:xlink="http://www.w3.org/1999/xlink">
    <!-- Generator: sketchtool 51.3 (57544) - http://www.bohemiancoding.com/sketch -->
    <title>10BB296D-684C-424A-8B38-5F0EE9C0205B</title>
    <desc>Created with sketchtool.</desc>
    <defs>
        <linearGradient x1="100%" y1="50%" x2="-2.22044605e-14%" y2="50%" id="linearGradient-1">
            <stop stop-color="#FF2BF4" offset="0%"></stop>
            <stop stop-color="#FC72B4" offset="100%"></stop>
        </linearGradient>
    </defs>
    <g id="design-27-may-2019" stroke="none" stroke-width="1" fill="none" fill-rule="evenodd">
        <g id="homepage" transform="translate(-934.000000, -44.000000)">
            <g id="logo" transform="translate(934.000000, 44.000000)">
                <polygon id="Rectangle-3" fill="url(#linearGradient-1)" points="20.2632501 0 52 0 1.35064935 60"></polygon>
                <path d="M11.1166667,14.2655789 L0.129286348,0.928265533 C-0.0714641506,0.684591563 -0.0343363078,0.326178875 0.212213773,0.127768803 C0.314903455,0.0451216481 0.443279554,0 0.575704744,0 L13.670306,0 C13.683046,0.000227599738 13.6958723,0 13.7087935,0 L34.3564299,0 C34.624815,0 34.8261038,0.0753355134 34.9603251,0.22597809 C35.0945177,0.376620667 35.1424436,0.583764879 35.1041029,0.847410726 L34.1838678,8.24804382 C34.1455271,8.51168967 34.0400901,8.71883388 33.8675568,8.86947646 C33.6949948,9.02011903 33.4745356,9.09545455 33.2061217,9.09545455 L22.5659911,9.09545455 C22.3359323,9.09545455 22.2209044,9.20842937 22.2209044,9.43440746 L21.5307338,14.8577934 C21.4923902,15.0837687 21.5882478,15.196752 21.8183037,15.196752 L27.3396765,15.196752 C27.608076,15.196752 27.8093735,15.2720762 27.9435747,15.4227273 C28.0777759,15.5733784 28.1257046,15.7805169 28.087361,16.0441571 L27.1671318,23.4448044 C27.0521038,24.0097439 26.7261932,24.2922066 26.1893885,24.2922066 L20.6680185,24.2922066 C20.4379598,24.2922066 20.3229347,24.4051928 20.3229347,24.631168 L19.6327613,30.1110386 C19.5944206,30.3370138 19.6902753,30.45 19.920334,30.45 L30.5604675,30.45 C30.8288814,30.45 31.0301702,30.5253241 31.1643628,30.6759752 C31.2985841,30.8266235 31.34651,31.0337649 31.3081693,31.2974022 L30.3879343,38.6980521 C30.3495935,38.9616897 30.2441565,39.1688305 30.0715945,39.3194804 C29.8990612,39.4701307 29.678602,39.5454545 29.4101881,39.5454545 L8.76256617,39.5454545 C8.53250741,39.5454545 8.35038031,39.4701307 8.21617913,39.3194804 C8.08197794,39.1688305 8.03404916,38.9616897 8.07239276,38.6980521 L11.1166667,14.2655789 Z" id="Clip-2" fill="#141A34"></path>
            </g>
        </g>
    </g>
</svg>