<?xml version="1.0" encoding="UTF-8"?>
<svg width="28px" height="28px" viewBox="0 0 28 28" version="1.1" xmlns="http://www.w3.org/2000/svg" xmlns:xlink="http://www.w3.org/1999/xlink">
    <!-- Generator: sketchtool 51.3 (57544) - http://www.bohemiancoding.com/sketch -->
    <title>6884212F-8A58-4EFA-8FD4-B6F4457CC69F</title>
    <desc>Created with sketchtool.</desc>
    <defs></defs>
    <g id="design" stroke="none" stroke-width="1" fill="none" fill-rule="evenodd">
        <g id="homepage" transform="translate(-1472.000000, -2352.000000)" fill="#000000">
            <g id="social" transform="translate(1472.000000, 2352.000000)">
                <path d="M13.9987108,0 C6.26882348,0 0,6.32771811 0,14.1338993 C0,20.3783238 4.01105006,25.6752823 9.57426563,27.5441847 C10.2747168,27.6743311 10.5299733,27.2379068 10.5299733,26.8630852 C10.5299733,26.5281751 10.517941,25.6388414 10.5110654,24.4597149 C6.61690046,25.3134753 5.79526689,22.5647833 5.79526689,22.5647833 C5.15841493,20.9318798 4.24052304,20.4971908 4.24052304,20.4971908 C2.96939746,19.6208717 4.33678136,19.6382245 4.33678136,19.6382245 C5.74198103,19.7380035 6.48110746,21.0949966 6.48110746,21.0949966 C7.72988735,23.2545593 9.75818779,22.6307242 10.5557568,22.2689172 C10.6829553,21.3561571 11.0447834,20.7331896 11.4444274,20.380059 C8.33579913,20.0234579 5.0673133,18.8104934 5.0673133,13.3946678 C5.0673133,11.8519991 5.61306363,10.589579 6.50860984,9.6022016 C6.36422235,9.24473281 5.88379017,7.80704888 6.64612173,5.86179398 C6.64612173,5.86179398 7.82098898,5.48176649 10.4955953,7.31075727 C11.61202,6.99667062 12.8100924,6.84049493 14.0004297,6.83442143 C15.1899076,6.84049493 16.3871205,6.99667062 17.5052641,7.31075727 C20.1781516,5.48176649 21.3512999,5.86179398 21.3512999,5.86179398 C22.1153504,7.80704888 21.6349182,9.24473281 21.4913902,9.6022016 C22.3886553,10.589579 22.9301084,11.8519991 22.9301084,13.3946678 C22.9301084,18.8243757 19.6564658,20.0191197 16.5383836,20.3687797 C17.040302,20.805204 17.4880751,21.6676408 17.4880751,22.9864577 C17.4880751,24.8753158 17.4708862,26.399764 17.4708862,26.8630852 C17.4708862,27.2413774 17.7235643,27.6812722 18.4334694,27.5433171 C23.9923877,25.6700765 28,20.3765885 28,14.1338993 C28,6.32771811 21.7311765,0 13.9987108,0" id="Fill-4"></path>
            </g>
        </g>
    </g>
</svg>