<?xml version="1.0" encoding="UTF-8"?>
<svg width="28px" height="28px" viewBox="0 0 28 28" version="1.1" xmlns="http://www.w3.org/2000/svg" xmlns:xlink="http://www.w3.org/1999/xlink">
    <!-- Generator: sketchtool 51.3 (57544) - http://www.bohemiancoding.com/sketch -->
    <title>9BFE1F1F-877A-49B8-BDAF-F4098E522E5F</title>
    <desc>Created with sketchtool.</desc>
    <defs></defs>
    <g id="design" stroke="none" stroke-width="1" fill="none" fill-rule="evenodd">
        <g id="homepage" transform="translate(-1589.000000, -2352.000000)" fill="#000000" fill-rule="nonzero">
            <g id="social" transform="translate(1472.000000, 2352.000000)">
                <path d="M117,0 L117,28 L145,28 L145,0 L117,0 Z M140.261,6.63366667 L138.7595,8.07333333 C138.629683,8.17213623 138.565419,8.33481865 138.592667,8.49566667 L138.592667,19.0738333 C138.565878,19.234297 138.630094,19.3964083 138.7595,19.495 L140.226,20.9346667 L140.226,21.2508333 L132.850333,21.2508333 L132.850333,20.9358333 L134.369333,19.46 C134.518667,19.3106667 134.518667,19.2675 134.518667,19.04 L134.518667,10.4883333 L130.295333,21.2158333 L129.723667,21.2158333 L124.805,10.4883333 L124.805,17.6785 C124.763998,17.9806128 124.864245,18.2847942 125.076833,18.5033333 L127.053167,20.8996667 L127.053167,21.2158333 L121.450833,21.2158333 L121.450833,20.9008333 L123.428333,18.5033333 C123.639376,18.2844315 123.733789,17.9782394 123.682667,17.6785 L123.682667,9.36483333 C123.706288,9.13384768 123.618309,8.90544939 123.445833,8.75 L121.688833,6.63366667 L121.688833,6.31866667 L127.141833,6.31866667 L131.357,15.5621667 L135.062333,6.3175 L140.261,6.3175 L140.261,6.63366667 Z" id="Shape"></path>
            </g>
        </g>
    </g>
</svg>