<?xml version="1.0" encoding="UTF-8"?>
<svg width="28px" height="23px" viewBox="0 0 28 23" version="1.1" xmlns="http://www.w3.org/2000/svg" xmlns:xlink="http://www.w3.org/1999/xlink">
    <!-- Generator: sketchtool 51.3 (57544) - http://www.bohemiancoding.com/sketch -->
    <title>C9F67802-647C-4052-B36F-1D80829EE579</title>
    <desc>Created with sketchtool.</desc>
    <defs></defs>
    <g id="design" stroke="none" stroke-width="1" fill="none" fill-rule="evenodd">
        <g id="homepage" transform="translate(-1531.000000, -2355.000000)" fill="#000000" fill-rule="nonzero">
            <g id="social" transform="translate(1472.000000, 2352.000000)">
                <path d="M86.5163897,5.66847179 C85.4997744,6.11532308 84.4142359,6.41973333 83.2712615,6.55872821 C84.4360615,5.85686154 85.3320615,4.75064615 85.7559385,3.43076923 C84.6635077,4.06830769 83.452759,4.53238974 82.1638974,4.79085128 C81.1346462,3.68923077 79.6677333,3 78.0388513,3 C74.9177846,3 72.387159,5.53062564 72.387159,8.64824615 C72.387159,9.09624615 72.4388513,9.52701538 72.5330462,9.93940513 C67.8347897,9.71770256 63.6706872,7.46162051 60.8838974,4.05107692 C60.3933949,4.88045128 60.1188513,5.84422564 60.1188513,6.89415385 C60.1188513,8.85846154 61.1182359,10.5849846 62.6322462,11.5993026 C61.7052308,11.5694359 60.8333538,11.3144205 60.0729026,10.8916923 L60.0729026,10.9617641 C60.0729026,13.7014564 62.0176821,15.9862564 64.6057436,16.5066256 C64.1313231,16.6341333 63.6304821,16.7030564 63.1170051,16.7030564 C62.7563077,16.7030564 62.4105436,16.6685949 62.0647795,16.6042667 C62.7896205,18.8477128 64.8733949,20.4834872 67.3534769,20.5294359 C65.4236308,22.0445949 62.9780103,22.9474872 60.344,22.9474872 C59.896,22.9474872 59.4491487,22.9210667 59,22.8705231 C61.5145436,24.4718359 64.4770872,25.408041 67.6808615,25.408041 C78.0813538,25.408041 83.7617641,16.7972513 83.7617641,9.34207179 C83.7617641,9.10198974 83.7617641,8.85961026 83.7445333,8.61837949 C84.8484513,7.82691282 85.8122256,6.82637949 86.5703795,5.69144615 L86.5163897,5.66847179 Z" id="Shape"></path>
            </g>
        </g>
    </g>
</svg>